<svg fill="none" height="497" viewBox="0 0 472 497" width="472" xmlns="http://www.w3.org/2000/svg"><path d="m230.452 411.576c-1.456-1.513-3.397-2.466-5.483-2.694-1.182-.118-2.447 2.363-2.458 2.47-1.182.354-4.29 1.122-6.228 1.76-1.56.532-3.131 1.088-4.29 1.596-4.029 1.678-6.653 4.727-6.026 7.161.496 1.985 2.978 3.084 6.145 2.99h.071c.526-.02 1.05-.067 1.571-.142h.201l2.139-.189c5.578-.473 14.688-1.182 15.078-1.312s1.513-.496 1.749-1.312c0 0 0 0 0-.059.194-.635.324-1.289.39-1.95.165-1.511-.006-3.041-.501-4.478-.494-1.438-1.299-2.75-2.358-3.841z" fill="#b5a1ff"/><path d="m252.491 413.833c-1.458-1.519-3.403-2.477-5.495-2.706-1.123-.118-2.446 2.364-2.446 2.482-1.182.354-4.302 1.111-6.228 1.761-1.572.531-3.131 1.087-4.29 1.595-4.029 1.69-6.652 4.727-6.026 7.173.508 1.985 2.99 3.084 6.145 2.989h.071c.53-.023 1.058-.074 1.583-.153h.201c.614-.059 1.335-.13 2.139-.189 5.589-.473 14.688-1.182 15.078-1.312s1.513-.496 1.761-1.323c.191-.637.322-1.29.39-1.95.169-1.521-.002-3.061-.5-4.508-.499-1.447-1.313-2.765-2.383-3.859z" fill="#b5a1ff"/><path d="m232.662 416.894c-3.297 1.572-5.484 4.041-5.389 6.227" stroke="#8f83cc" stroke-linecap="round" stroke-miterlimit="10"/><g fill="#8e4c30"><path d="m172.218 160.465s1.666-10.766 1.075-15.126c-.531-3.971-3.037-7.185-7.622-7.303-2.446.007-4.855.606-7.019 1.746-2.165 1.14-4.022 2.787-5.412 4.801-4.16 6.83-1.666 11.06 2.671 14.381 2.268 1.737 6.251 2.363 7.456 4.833.745 1.536 8.851-3.332 8.851-3.332z"/><path d="m225.394 414.034c-1.701.237-3.545-.567-3.545-2.505v-6.027c0-.94.374-1.842 1.038-2.506.665-.665 1.567-1.039 2.507-1.039s1.842.374 2.507 1.039c.665.664 1.038 1.566 1.038 2.506v4.727c-.041.952-.421 1.859-1.071 2.556-.65.698-1.527 1.14-2.474 1.249z"/><path d="m247.433 416.291c-1.714.237-3.545-.567-3.545-2.505v-6.027c0-.94.373-1.842 1.038-2.506.665-.665 1.567-1.039 2.507-1.039s1.842.374 2.507 1.039c.664.664 1.038 1.566 1.038 2.506v4.727c-.044.952-.425 1.857-1.074 2.554s-1.525 1.14-2.471 1.251z"/></g><path d="m210.339 327.037c3.545-4.041 10.317-4.573 10.317-4.573l31.48 2.623s.957-1.181 6.582 9.82c-4.218 2.612-20.644 1.407-24.402 1.288-3.758-.118-19.084-3.663-23.977-9.158z" fill="#f69182"/><path d="m284.881 342.139c-.552-.421-1.189-.715-1.867-.862-.898-1.312-4.243-1.336-7.8 0-3.781 1.441-6.357 3.899-5.754 5.471.449 1.182 2.457 1.524 4.986 1.075-2.458 4.727-3.001 9.324-.709 12.503 2.293 3.179 7.528 3.356 11.356-1.938 3.829-5.294 3.38-13.602-.212-16.249z" fill="#8e4c30"/><path d="m255.351 314.653-1.076 94.773c-1.843 0-3.781 0-5.766 0-4.089-.107-7.918-.367-11.25-.721l-1.572-60.326c0-1.702-.981-2.553-1.962-2.553-.98 0-1.949.851-1.949 2.553v59.404h-.757s-3.852.106-5.908.106c-3.12 0-6.086-.082-8.804-.248l-3.06-92.953z" fill="#ed4c56"/><path d="m263.516 256.714c-2.618-2.422-5.381-4.683-8.272-6.771-5.903-4.279-12.289-7.848-19.025-10.635-.627 1.418-1.241 2.836-1.856 4.266-4.529-3.656-8.867-7.541-12.998-11.64-11.969-11.878-22.302-25.298-30.725-39.906-6.455-11.142-11.832-22.874-16.059-35.038-2.576.993-5.188 2.128-7.799 3.404-2.612 1.276-5.093 2.623-7.457 4.041 4.361 12.051 9.771 23.696 16.166 34.801 10.655 18.594 24.16 35.401 40.024 49.809-3.805 14.949-6.086 34.269-6.086 55.327 0 7.847.319 15.445.91 22.665 10.694.076 21.352 1.264 31.8 3.545 5.584 1.173 11.105 2.624 16.544 4.349-.662-7.598-1.017-15.622-1.017-23.929-.015-11.343.696-22.675 2.127-33.927 0-.26 0-.52-.082-.768.047.066.099.129.153.189 10.628 13.318 16.394 29.863 16.343 46.902-.011 5.326-.597 10.635-1.749 15.834 1.915 1.182 3.983 2.435 6.157 3.546 2.811 1.506 5.707 2.848 8.674 4.017 1.421-5.241 2.362-10.6 2.812-16.012 1.147-13.704-.829-27.49-5.781-40.319-4.951-12.83-12.748-24.369-22.804-33.75z" fill="#f69182"/><g stroke="#123d55" stroke-linecap="round" stroke-miterlimit="10"><path d="m140.855 79.1163 22.866 62.4647s-1.371 44.267 0 59.711"/><path d="m163.721 74.4486-2.742 131.3584"/><path d="m187.58 82.8269-24.58 56.7221s-2.954 51.628-5.684 60.491"/></g><path d="m151.147 151.933c1.182 3.545 17.785 3.332 14.181-3.829z" fill="#8e4c30"/><path d="m151.147 151.933c1.182 3.545 17.785 3.332 14.181-3.829" stroke="#6d3a25" stroke-linecap="round" stroke-miterlimit="10"/><path d="m154.314 157.64c5.011 2.021 12.999.414 10.34-4.726z" fill="#8e4c30"/><path d="m154.314 157.64c5.011 2.021 12.999.414 10.34-4.726" stroke="#6d3a25" stroke-linecap="round" stroke-miterlimit="10"/><path d="m152.294 146.272c.591 3.546 3.108 3.132 6.688 1.631z" fill="#8e4c30"/><path d="m152.294 146.272c.591 3.546 3.108 3.132 6.688 1.631" stroke="#6d3a25" stroke-linecap="round" stroke-miterlimit="10"/><path d="m170.492 139.785c-3.238-2.127-10.954 3.297-11.652 5.908-.697 2.612 3.404 6.925 9.005 0" fill="#8e4c30"/><path d="m170.492 139.785c-3.238-2.127-10.954 3.297-11.652 5.908-.697 2.612 3.404 6.925 9.005 0" stroke="#6d3a25" stroke-linecap="round" stroke-miterlimit="10"/><path d="m223.929 47.2931c3.899-14.1804-3.853-28.6444-17.324-32.3668-13.472-3.7224-27.557 4.7268-31.457 18.9072-6.192 22.4524 5.542 39.0553 11.545 45.3183l-2.363 2.3634c-.075.0715-.129.1621-.156.2621s-.026.2055.002.3051c.023.1022.074.196.147.2711s.165.1285.267.1543l6.535 1.7371c.098.0276.202.029.302.0042.099-.0249.191-.0752.265-.146.075-.0715.129-.1622.156-.2622.027-.0999.026-.2054-.003-.305l-.85-3.2733c7.903-2.1143 15.11-6.2755 20.892-12.064 5.782-5.7884 9.936-12.9994 12.042-20.9055z" fill="#ed4c56"/><path d="m149.328 29.3549c-5.01-13.8023-19.723-21.12885-32.851-16.3666-13.129 4.7623-19.723 19.8171-14.713 33.6549 7.941 21.8969 27.18 28.6562 35.641 30.287l-.579 3.2378c-.019.1021-.01.2071.026.3046.035.0975.095.184.174.2508.081.0638.176.106.278.1225.101.0166.205.0069.301-.0279l6.334-2.2689c.097-.0358.183-.0963.249-.1755s.11-.1743.128-.2759.009-.206-.026-.3031c-.035-.097-.095-.1832-.173-.2499l-2.624-2.2216c5.232-6.2969 8.712-13.8621 10.087-21.9326 1.376-8.0706.599-16.3611-2.252-24.0356z" fill="#f69182"/><path d="m188.762 31.5883c0-14.6886-11.321-26.5883-25.301-26.5883-13.979 0-25.3 11.8997-25.3 26.5883 0 23.3031 15.729 36.1837 23.173 40.6269l-1.642 2.8479c-.052.0898-.079.1917-.079.2954s.027.2056.079.2954c.054.0895.13.1636.221.2153s.194.0793.299.0802h6.724c.103-.0007.204-.0284.294-.0805.089-.0521.163-.1268.215-.2165.051-.0897.078-.1914.078-.2948s-.028-.205-.079-.2945l-1.678-2.9306c7.06-4.1384 12.904-10.066 16.941-17.1845 4.038-7.1186 6.126-15.1762 6.055-23.3597z" fill="#b5a1ff"/><path d="m327.02 147.903c-7.693-3.864-15.693-5.01-21.956-3.687.57-2.425.602-4.946.095-7.385-2.423-11.451-16.355-18.222-31.138-15.103-11.604 2.447-20.278 10.269-22.287 19.061-3.604-9.323-10.033-15.362-16.851-14.865-9.572.779-16.284 14.31-14.996 30.239.257 3.235.847 6.435 1.761 9.548-7.598-3.71-15.362-3.344-18.139 1.182-3.084 5.011 1.182 13.247 9.453 18.399 2.666 1.68 5.606 2.88 8.686 3.545-8.532 3.924-12.821 13.212-9.595 21.165 3.332 8.271 13.4 11.899 22.452 8.212 2.03-.82 3.905-1.984 5.542-3.438-2.588 4.36-3.297 9.241-1.536 13.601 3.545 8.662 15.48 11.994 26.73 7.433 2.36-.952 4.575-2.229 6.582-3.793.059 7.503 2.576 13.365 7.291 15.208 7.882 3.096 18.907-6.18 24.603-20.715.741-1.904 1.372-3.85 1.891-5.826 3.344 6.57 8.118 10.635 13.105 10.21 8.449-.685 14.275-13.849 12.999-29.412-.417-6.302-2.174-12.441-5.153-18.01 7.764.343 14.287-2.268 16.958-7.61 4.467-8.685-2.978-21.199-16.497-27.959z" fill="#123d55"/><path d="m246.535 229.807v14.535c-1.55 1.218-3.231 2.261-5.011 3.108-5.471 2.659-10.635 3.226-11.64 1.252-.52-1.075.331-2.682 2.116-4.36v-14.535z" fill="#6d3a25"/><path d="m268.03 222.244c1.264 2.919-.414 6.452-3.734 7.882-1.368.674-2.933.832-4.408.443-1.474-.389-2.759-1.297-3.616-2.558-8.934 6.665-20.254 8.059-28.503 2.635-10.812-7.09-12.23-23.315-3.167-36.16 9.064-12.845 25.194-17.501 36.007-10.375 10.517 6.936 12.148 22.452 3.888 35.108.774.214 1.492.596 2.103 1.119s1.099 1.174 1.43 1.906z" fill="#8e4c30"/><path d="m252.455 219.254c-6.452 6.606-15.882 8.579-22.452 4.243-4.491-2.955-6.641-8.166-6.299-13.779 1.575 3.271 4.004 6.055 7.031 8.059 6.252 4.124 14.264 4.396 21.72 1.477z" fill="#fff"/></svg>